<svg  viewBox="0 0 512 512" fill="none" xmlns="http://www.w3.org/2000/svg">
<style>
    path {
      fill: #910917;
    }
    @media (prefers-color-scheme: dark) {
      path {
        fill: #C53F46;
      }
    }
  </style>
<g clip-path="url(#clip0_10_610)">
<path d="M240.914 191.285C246.996 199.8 249.428 215.615 256.726 215.615C264.026 215.615 266.457 199.8 272.539 191.285C284.703 174.254 304.165 163.305 310.248 141.408C316.33 113.429 307.814 85.4499 295.65 61.12C292.001 53.8211 288.352 46.5221 284.703 38.0066C283.488 36.7901 282.27 35.5736 281.054 36.7901C277.406 40.4395 271.323 41.6561 265.241 41.6561C253.077 40.4395 243.347 30.7076 242.13 18.5427C242.13 16.1097 238.481 14.8932 237.265 17.3262C229.967 31.9241 222.668 47.7385 216.587 61.12C204.423 85.4499 197.125 113.429 203.207 141.408C209.288 162.089 227.534 173.037 240.914 191.285Z" />
<path d="M67.9678 317.593C84.0105 293.891 103.756 272.683 130.905 265.198C153.118 258.96 171.629 270.188 193.842 272.683C203.715 273.93 219.758 267.694 223.46 273.93C227.162 280.168 213.587 291.396 209.885 300.129C201.247 320.089 201.247 342.545 185.204 358.762C164.225 378.721 135.841 386.206 108.692 387.455C93.883 388.702 76.6061 391.197 59.3293 391.197C56.8611 391.197 55.6271 388.702 56.8611 386.206C66.7336 378.721 70.4359 365 65.4995 353.771C63.0314 348.78 58.0952 343.792 53.1589 341.295C51.9249 342.545 51.9249 340.048 53.1589 338.801C58.0952 331.316 63.0314 323.831 67.9678 317.593Z" />
<path d="M223.767 233.947C220.025 240.143 203.808 233.947 193.828 235.188C171.374 237.666 152.662 248.819 130.207 242.623C102.763 235.188 81.5557 212.883 66.5861 190.578C57.8538 178.187 46.6266 164.556 37.8943 149.686C36.6468 147.208 39.1418 144.729 41.6367 145.969C52.8639 150.925 66.5861 147.208 74.071 137.295C77.8134 132.338 79.0608 126.142 77.8134 121.186C77.8134 119.947 79.0608 118.707 80.3083 118.707C89.0406 119.947 99.0203 119.947 106.505 121.186C133.949 123.664 163.889 129.86 183.848 149.686C200.065 165.795 200.065 188.1 208.797 207.926C213.788 217.839 226.262 227.753 223.767 233.947Z" />
<path d="M271.319 320.232C265.239 311.718 262.806 295.903 255.508 295.903C248.208 295.903 245.776 311.718 239.694 320.232C227.531 337.265 208.069 348.212 201.987 370.11C194.689 398.088 203.203 424.851 215.367 450.398C219.016 457.697 222.665 464.995 226.314 473.511C227.531 474.727 228.747 475.945 229.964 474.727C234.829 471.078 239.694 469.862 245.776 469.862C257.939 471.078 267.67 480.81 268.888 492.975C268.888 495.409 272.537 496.625 273.752 494.191C281.05 479.594 288.35 463.779 294.43 450.398C306.594 426.069 313.892 398.088 307.81 370.11C304.161 349.428 284.699 338.48 271.319 320.232Z" />
<path d="M472.02 359.162C463.507 345.781 452.558 331.182 444.045 319.016C428.232 295.903 408.769 275.223 382.01 267.925C360.114 261.842 341.87 272.79 319.974 275.223C310.243 276.439 294.432 270.358 290.781 276.441C287.132 282.522 300.512 293.471 304.161 301.986C312.677 321.45 312.677 343.347 328.49 359.162C349.168 378.624 377.145 385.925 403.905 387.141C411.203 388.356 420.934 388.356 429.447 389.574C430.665 389.574 431.88 388.356 431.88 387.141C431.88 381.058 433.098 376.193 435.529 371.326C442.829 361.594 456.209 357.944 467.156 362.812C470.805 362.812 473.238 360.378 472.02 359.162Z" />
<path d="M291.995 235.079C295.644 241.162 311.457 235.079 321.188 236.295C343.083 238.728 361.328 249.676 383.223 243.593C409.983 236.295 430.661 214.398 445.258 192.501C450.123 186.419 454.987 179.12 459.854 171.821C461.07 170.605 459.854 168.172 458.638 168.172C453.772 165.739 448.907 162.089 446.474 156.007C441.607 145.058 444.041 131.677 454.987 124.378C457.421 123.161 456.205 119.512 453.772 119.512C437.959 119.512 419.714 121.945 405.116 123.161C378.357 125.594 349.164 131.677 329.701 151.141C313.89 166.955 313.89 188.852 305.375 208.316C300.51 219.264 288.346 228.996 291.995 235.079Z" />
</g>

</svg>
